<?xml version="1.0" standalone="no"?>
<!DOCTYPE svg PUBLIC "-//W3C//DTD SVG 20010904//EN"
 "http://www.w3.org/TR/2001/REC-SVG-20010904/DTD/svg10.dtd">
<svg version="1.0" xmlns="http://www.w3.org/2000/svg"
 width="800.000000pt" height="800.000000pt" viewBox="0 0 800.000000 800.000000"
 preserveAspectRatio="xMidYMid meet">

<g transform="translate(0.000000,800.000000) scale(0.100000,-0.100000)"
fill="#000000" stroke="none">
<path d="M0 6426 c0 -1249 3 -1576 13 -1582 6 -4 9 -4 5 1 -4 4 3 16 15 27 12
11 16 17 10 13 -9 -4 -11 -1 -7 9 3 9 10 14 14 11 4 -3 13 2 20 10 7 8 9 15 4
15 -5 0 -4 4 2 8 6 4 18 21 27 37 9 17 30 46 47 65 25 29 32 33 41 20 8 -12 9
-10 4 7 -3 12 -1 25 6 29 8 5 9 3 4 -6 -5 -9 -4 -11 3 -6 7 4 12 13 12 21 0 8
13 28 30 46 16 18 26 37 23 42 -3 6 -1 7 5 3 7 -4 37 18 74 55 35 34 57 59 49
54 -9 -5 -7 1 4 19 9 14 21 23 26 20 5 -3 8 -1 7 5 -2 5 21 32 51 60 30 27 62
62 72 78 11 15 19 22 19 14 0 -11 4 -9 15 5 8 10 15 15 15 10 0 -5 13 8 29 28
17 21 47 51 68 67 21 17 41 35 44 41 4 6 12 8 18 4 6 -4 9 -2 6 6 -6 16 50 86
60 76 5 -4 2 -16 -6 -25 -11 -14 -9 -14 11 2 40 32 60 53 60 65 0 9 14 14 33
11 9 -2 27 16 44 44 6 11 16 19 23 17 6 -1 9 2 5 7 -3 6 10 17 30 25 21 9 34
20 30 26 -4 6 -2 9 3 8 5 -2 28 18 53 43 53 55 88 82 74 59 -8 -13 -6 -13 8
-2 9 8 15 18 14 22 -1 5 12 19 29 32 17 13 31 27 32 33 0 5 6 11 14 13 10 3
10 2 -1 -6 -8 -6 -9 -12 -3 -16 11 -7 25 21 17 34 -3 4 5 6 17 2 18 -4 20 -2
14 14 -5 14 -4 16 4 8 9 -9 20 -3 44 22 18 19 38 34 45 34 6 0 10 3 9 8 -2 4
-1 7 2 7 8 0 74 47 99 72 13 12 28 20 34 16 5 -3 7 -2 4 4 -6 10 36 53 52 53
5 0 12 7 15 16 3 8 10 12 16 9 5 -3 10 -1 10 5 0 6 4 9 9 6 5 -4 11 -2 13 3 1
5 9 11 17 13 7 2 26 14 41 28 48 43 59 50 77 50 10 0 25 5 33 11 12 8 9 9 -10
5 -23 -5 -23 -5 3 7 15 7 24 17 20 22 -5 4 0 5 9 2 10 -3 17 -3 17 1 -3 19 2
23 15 13 15 -12 46 -5 46 11 0 6 -5 7 -13 2 -7 -5 -5 -2 5 7 9 9 16 18 15 20
-1 2 0 3 2 1 2 -1 13 5 23 15 10 9 18 12 18 7 0 -21 45 -8 76 23 19 18 34 30
34 27 0 -4 8 0 17 7 15 12 16 12 8 -1 -5 -10 -1 -9 13 3 12 12 26 16 34 11 11
-6 11 -5 0 8 -10 13 -10 18 -1 24 7 4 9 3 5 -4 -4 -6 1 -10 12 -9 13 1 18 7
14 19 -2 10 1 18 7 18 7 0 10 -4 6 -9 -3 -5 -1 -13 5 -16 6 -4 10 -3 9 2 -4
23 2 35 17 29 8 -3 12 -2 9 4 -5 9 1 12 21 9 4 0 11 5 16 13 8 10 9 10 5 -2
-2 -8 -10 -14 -16 -12 -6 1 -11 -2 -11 -8 0 -16 15 -12 33 8 10 10 14 23 10
27 -5 5 -1 4 8 -3 12 -9 20 -8 35 4 18 14 18 14 -6 4 -24 -11 -24 -11 -5 5 11
9 28 14 38 11 10 -2 14 0 10 7 -4 7 0 8 11 4 11 -5 15 -3 10 5 -5 7 0 9 14 6
14 -4 20 -2 15 5 -4 7 0 8 12 3 11 -4 25 0 36 10 10 9 25 14 34 10 9 -3 14 -2
10 3 -5 9 51 27 68 23 5 -2 6 2 2 8 -6 9 22 15 54 11 8 -2 10 2 5 10 -4 8 -3
10 4 5 14 -9 63 4 57 15 -3 4 4 6 16 4 13 -3 28 0 36 6 9 9 13 8 13 0 0 -8 7
-6 17 5 11 11 18 13 21 5 2 -6 8 -11 13 -11 6 0 8 4 5 9 -3 4 6 6 21 3 21 -4
25 -2 20 12 -5 12 0 16 21 15 24 0 25 -1 7 -9 -13 -6 -15 -9 -5 -9 26 -1 60
11 55 19 -3 5 4 6 15 3 11 -3 28 1 37 8 14 12 16 12 8 0 -5 -8 -4 -12 1 -8 32
19 389 33 400 16 4 -6 11 -6 19 1 7 6 16 7 18 3 3 -5 23 -8 44 -7 21 0 41 -3
44 -7 3 -5 43 -4 90 2 127 17 560 14 705 -5 262 -33 617 -132 852 -235 681
-300 1253 -875 1547 -1555 30 -69 55 -130 55 -136 0 -5 5 -10 11 -10 5 0 8 -4
4 -9 -3 -5 4 -12 15 -16 11 -4 18 -11 15 -16 -3 -5 0 -6 8 -3 8 3 20 -3 28
-13 12 -16 12 -17 -1 -8 -9 6 -7 2 3 -7 11 -10 23 -15 28 -12 5 3 9 -2 9 -10
0 -8 5 -18 12 -22 8 -5 9 -2 5 10 -4 11 -3 15 4 10 6 -3 8 -16 5 -28 -5 -20
-5 -20 9 -2 12 16 15 17 15 4 0 -8 21 -35 47 -59 26 -24 67 -65 92 -90 25 -25
74 -70 109 -99 38 -33 61 -59 57 -67 -2 -8 -1 -12 3 -10 8 5 28 -13 29 -27 1
-15 27 -45 35 -40 4 3 8 -1 8 -9 0 -8 11 -26 24 -40 13 -14 32 -49 41 -77 11
-34 21 -50 30 -46 7 2 16 -2 19 -10 3 -8 2 -13 -2 -10 -5 3 -9 -1 -9 -8 0 -8
6 -12 12 -10 12 5 35 -24 48 -58 4 -12 2 -15 -9 -11 -10 4 -12 0 -8 -11 3 -9
12 -16 19 -16 18 0 26 -25 12 -39 -9 -9 -8 -10 7 -5 14 5 17 4 12 -4 -4 -7 0
-19 8 -28 9 -8 16 -21 16 -27 0 -7 -5 -6 -11 3 -9 12 -10 12 -5 -3 3 -10 6
-21 6 -23 0 -3 4 -3 9 0 5 3 11 -3 14 -14 3 -11 1 -18 -4 -14 -5 3 -9 0 -9 -5
0 -6 5 -11 10 -11 6 0 9 -3 8 -7 -1 -5 4 -21 11 -37 6 -16 9 -31 6 -34 -3 -3
-5 1 -5 8 0 7 -3 11 -6 8 -3 -4 2 -17 10 -30 9 -14 19 -51 22 -84 3 -32 7 -78
9 -102 2 -23 7 -52 10 -64 5 -14 4 -18 -4 -14 -6 4 -11 0 -11 -8 0 -9 6 -16
13 -16 9 0 9 -2 -1 -9 -10 -6 -14 -36 -13 -119 1 -92 -1 -111 -15 -116 -9 -4
-14 -13 -10 -21 3 -8 1 -15 -5 -15 -5 0 -9 -6 -8 -12 4 -22 -13 -128 -20 -124
-3 2 -7 -8 -8 -24 -1 -15 -11 -42 -21 -61 -11 -19 -23 -52 -27 -73 -5 -29 -9
-36 -16 -25 -6 10 -9 5 -9 -18 0 -17 -5 -35 -12 -39 -7 -4 -8 -3 -4 4 4 7 2
12 -4 12 -8 0 -9 -11 -5 -32 4 -22 3 -29 -3 -19 -7 10 -12 3 -17 -28 -4 -25
-15 -47 -28 -56 -12 -9 -22 -19 -21 -23 2 -16 -9 -42 -17 -42 -5 0 -9 -5 -9
-12 0 -6 -8 -20 -17 -30 -16 -18 -16 -18 0 -12 9 3 17 3 17 0 0 -11 -47 -80
-80 -115 -17 -19 -39 -54 -50 -78 -11 -24 -29 -47 -42 -53 -13 -5 -18 -9 -13
-10 6 0 4 -4 -3 -9 -7 -4 -14 -15 -16 -23 -1 -9 -8 -24 -16 -34 -14 -18 -13
-18 7 0 13 10 20 22 18 27 -3 4 -1 10 4 13 5 4 12 2 16 -4 5 -9 -15 -31 -58
-62 -10 -7 -19 -23 -19 -35 -2 -14 -7 -19 -17 -15 -8 3 -12 1 -8 -5 4 -6 -4
-22 -17 -36 -13 -14 -21 -29 -17 -32 3 -4 2 -6 -4 -5 -25 5 -37 -1 -31 -16 3
-8 2 -12 -3 -9 -11 6 -42 -35 -35 -47 3 -4 -3 -5 -13 -1 -10 3 -15 3 -11 -1 4
-5 -6 -21 -22 -36 -16 -15 -27 -30 -24 -32 4 -5 -40 -47 -66 -63 -13 -8 -13
-7 0 11 8 10 -27 -23 -78 -74 -56 -56 -99 -92 -107 -88 -9 3 -12 -1 -10 -15 4
-18 2 -19 -12 -7 -15 11 -16 11 -10 -4 4 -12 2 -15 -7 -12 -8 3 -23 -7 -34
-21 -12 -15 -26 -24 -32 -20 -5 3 -10 1 -10 -5 0 -6 -5 -8 -12 -4 -6 4 -8 3
-5 -3 6 -10 -18 -35 -46 -46 -9 -3 -17 -11 -17 -17 0 -5 -7 -10 -16 -10 -9 0
-12 5 -8 12 4 7 3 8 -4 4 -7 -4 -12 -12 -12 -18 0 -6 -8 -17 -17 -25 -12 -10
-13 -12 -3 -8 8 4 6 -1 -5 -10 -11 -9 -40 -26 -65 -37 -24 -10 -47 -23 -50
-27 -7 -9 -124 -61 -139 -61 -6 0 -11 -5 -11 -11 0 -5 -4 -8 -9 -5 -4 3 -26
-4 -47 -15 -21 -11 -50 -22 -64 -24 -28 -3 -64 -16 -111 -41 -19 -10 -28 -11
-24 -4 5 8 3 11 -6 8 -8 -3 -13 -11 -11 -17 2 -10 -12 -15 -32 -12 -4 1 -15
-6 -23 -16 -8 -10 -12 -12 -8 -5 8 16 -7 16 -24 0 -11 -11 -12 -10 -6 1 5 9 0
8 -17 -3 -14 -9 -35 -16 -49 -15 -46 2 -124 -29 -224 -87 -339 -197 -720 -323
-1144 -379 -155 -20 -566 -20 -722 0 -417 54 -804 182 -1141 378 -76 44 -109
57 -147 59 -27 2 -47 6 -45 9 2 3 -8 11 -23 18 -24 11 -25 10 -13 -4 11 -13
10 -15 -4 -9 -9 3 -16 12 -16 19 0 20 -34 27 -64 14 -23 -11 -29 -10 -41 4 -8
9 -10 12 -3 7 7 -6 16 -10 22 -10 5 0 1 6 -9 14 -11 8 -25 12 -31 9 -7 -2 -15
0 -19 6 -3 6 -22 11 -41 11 -19 0 -48 7 -63 15 -16 8 -30 12 -33 10 -9 -9 -78
16 -72 26 3 6 0 9 -7 8 -23 -4 -93 12 -116 27 -12 8 -33 14 -45 14 -22 0 -63
19 -43 20 26 1 -24 20 -52 20 -18 0 -33 5 -33 10 0 6 -8 10 -17 10 -10 0 -31
7 -46 15 -19 9 -25 10 -21 2 4 -7 -4 -2 -18 11 -18 17 -27 20 -30 11 -5 -14
-11 -10 -59 34 -11 10 -25 15 -30 11 -6 -4 -14 -1 -18 5 -9 15 -102 49 -124
45 -9 -1 -15 2 -11 7 3 5 -2 9 -11 9 -8 0 -22 8 -31 19 -10 11 -24 17 -37 13
-14 -4 -18 -1 -13 7 5 8 0 10 -18 7 -15 -3 -32 1 -40 10 -8 7 -24 15 -35 17
-11 2 -31 13 -44 25 -13 12 -30 22 -39 22 -8 0 -27 9 -42 21 -14 11 -26 17
-26 12 0 -4 -5 0 -11 10 -8 13 -14 15 -24 7 -9 -8 -17 -4 -29 15 -9 14 -21 23
-25 20 -5 -2 -24 5 -42 18 -19 12 -54 34 -79 49 -25 14 -55 36 -67 47 -13 12
-26 22 -30 23 -30 5 -42 13 -53 33 -10 20 -26 29 -60 35 -13 3 -40 35 -40 47
0 8 -4 12 -9 8 -6 -3 -15 4 -21 15 -10 20 -68 56 -83 52 -4 -1 -7 3 -7 9 0 5
-4 8 -9 5 -5 -4 -23 13 -40 36 -18 24 -35 43 -40 43 -11 0 -112 88 -106 93 6
6 -24 47 -74 101 l-41 44 0 -1351 0 -1352 4000 0 4000 0 0 4000 0 4000 -4000
0 -4000 0 0 -1574z m7174 -1662 c3 -8 2 -12 -4 -9 -6 3 -10 10 -10 16 0 14 7
11 14 -7z m-529 -2863 c-9 -8 -36 -10 -30 -2 2 4 11 8 20 8 8 0 13 -3 10 -6z
m-4411 -420 c4 -5 -3 -7 -14 -4 -23 6 -26 13 -6 13 8 0 17 -4 20 -9z"/>
<path d="M1980 6595 c-7 -9 -8 -15 -2 -15 5 0 12 7 16 15 3 8 4 15 2 15 -2 0
-9 -7 -16 -15z"/>
<path d="M3023 5175 c-136 -26 -228 -56 -339 -110 -359 -175 -609 -508 -680
-905 -23 -131 -23 -382 0 -515 35 -196 115 -391 218 -534 62 -85 194 -216 280
-277 142 -101 323 -171 505 -195 110 -15 330 -7 437 16 192 40 412 138 539
241 l67 54 0 -145 0 -145 190 0 190 0 0 475 0 475 293 0 293 0 265 -472 265
-473 227 -3 c125 -1 227 1 227 4 0 4 -126 223 -279 488 -154 265 -283 488
-286 497 -5 13 14 28 77 64 152 87 300 264 358 426 40 116 48 284 19 419 -60
281 -291 511 -587 586 -94 24 -95 24 -673 24 l-579 0 0 -166 0 -166 -57 53
c-129 118 -315 216 -501 265 -122 32 -355 41 -469 19z m387 -390 c97 -30 198
-84 298 -160 53 -40 108 -85 122 -99 l24 -27 98 98 98 98 0 -848 c0 -466 -2
-847 -4 -847 -3 0 -41 61 -86 135 -45 74 -84 135 -86 135 -2 0 -30 -21 -63
-47 -169 -136 -370 -213 -555 -213 -75 0 -232 23 -306 46 -206 61 -390 215
-487 407 -100 200 -122 524 -51 757 57 186 195 366 355 463 76 46 198 95 282
113 87 18 286 12 361 -11z m1785 1 c108 -29 219 -105 271 -187 105 -166 52
-453 -103 -563 -86 -60 -82 -60 -525 -64 l-408 -3 0 415 0 416 358 0 c266 0
370 -4 407 -14z"/>
<path d="M7490 4321 c0 -6 4 -13 10 -16 6 -3 7 1 4 9 -7 18 -14 21 -14 7z"/>
<path d="M7631 3474 c0 -11 3 -14 6 -6 3 7 2 16 -1 19 -3 4 -6 -2 -5 -13z"/>
<path d="M205 2480 c3 -5 8 -10 11 -10 2 0 4 5 4 10 0 6 -5 10 -11 10 -5 0 -7
-4 -4 -10z"/>
</g>
</svg>
